<svg width="1920" height="256" viewBox="0 0 1920 256" fill="none" xmlns="http://www.w3.org/2000/svg">
<rect width="1920" height="235" fill="#237F61"/>
<path d="M640.5 54.9757C953 -24.8761 1229.5 -3.66616 1490.5 68.544C1686.96 108.617 1919.9 21.3382 1920 21.2999V231.275C1914.78 230.22 1909.24 229.651 1903.5 229.651C1883.9 229.651 1866.63 236.264 1856.5 246.304C1846.37 236.264 1829.1 229.651 1809.5 229.651C1789.9 229.651 1772.63 236.264 1762.5 246.304C1752.37 236.264 1735.1 229.651 1715.5 229.651C1695.9 229.651 1678.63 236.264 1668.5 246.304C1658.37 236.264 1641.1 229.651 1621.5 229.651C1601.9 229.651 1584.63 236.264 1574.5 246.304C1564.37 236.264 1547.1 229.651 1527.5 229.651C1507.9 229.651 1490.63 236.264 1480.5 246.304C1470.37 236.264 1453.1 229.651 1433.5 229.651C1413.9 229.651 1396.63 236.264 1386.5 246.304C1376.37 236.264 1359.1 229.651 1339.5 229.651C1319.9 229.651 1302.63 236.264 1292.5 246.304C1282.37 236.264 1265.1 229.651 1245.5 229.651C1225.9 229.651 1208.63 236.264 1198.5 246.304C1188.37 236.264 1171.1 229.651 1151.5 229.651C1131.9 229.651 1114.63 236.264 1104.5 246.304C1094.37 236.264 1077.1 229.651 1057.5 229.651C1037.9 229.651 1020.63 236.264 1010.5 246.304C1000.37 236.264 983.099 229.651 963.5 229.651C943.901 229.651 926.633 236.264 916.5 246.304C906.367 236.264 889.099 229.651 869.5 229.651C849.901 229.651 832.633 236.264 822.5 246.304C812.367 236.264 795.099 229.651 775.5 229.651C755.901 229.651 738.633 236.264 728.5 246.304C718.367 236.264 701.099 229.651 681.5 229.651C661.901 229.651 644.633 236.264 634.5 246.304C624.367 236.264 607.099 229.651 587.5 229.651C567.901 229.651 550.633 236.264 540.5 246.304C530.367 236.264 513.099 229.651 493.5 229.651C473.901 229.651 456.633 236.264 446.5 246.304C436.367 236.264 419.099 229.651 399.5 229.651C379.901 229.651 362.633 236.264 352.5 246.304C342.367 236.264 325.099 229.651 305.5 229.651C285.901 229.651 268.633 236.264 258.5 246.304C248.367 236.264 231.099 229.651 211.5 229.651C191.901 229.651 174.633 236.264 164.5 246.304C154.367 236.264 137.099 229.651 117.5 229.651C97.9006 229.651 80.6335 236.264 70.5 246.304C60.3665 236.264 43.0994 229.651 23.5 229.651C15.1145 229.651 7.15592 230.862 0 233.033V21.2999C185.5 21.2999 328 134.827 640.5 54.9757Z" fill="#E9DFA5"/>
<path d="M640.5 63.9753C953 -15.8765 1229.5 5.3344 1490.5 77.5446C1686.98 117.622 1919.96 30.3159 1920 30.2995V240.274C1914.78 239.22 1909.24 238.651 1903.5 238.651C1883.9 238.651 1866.63 245.264 1856.5 255.303C1846.37 245.264 1829.1 238.651 1809.5 238.651C1789.9 238.651 1772.63 245.264 1762.5 255.303C1752.37 245.264 1735.1 238.651 1715.5 238.651C1695.9 238.651 1678.63 245.264 1668.5 255.303C1658.37 245.264 1641.1 238.651 1621.5 238.651C1601.9 238.651 1584.63 245.264 1574.5 255.303C1564.37 245.264 1547.1 238.651 1527.5 238.651C1507.9 238.651 1490.63 245.264 1480.5 255.303C1470.37 245.264 1453.1 238.651 1433.5 238.651C1413.9 238.651 1396.63 245.264 1386.5 255.303C1376.37 245.264 1359.1 238.651 1339.5 238.651C1319.9 238.651 1302.63 245.264 1292.5 255.303C1282.37 245.264 1265.1 238.651 1245.5 238.651C1225.9 238.651 1208.63 245.264 1198.5 255.303C1188.37 245.264 1171.1 238.651 1151.5 238.651C1131.9 238.651 1114.63 245.264 1104.5 255.303C1094.37 245.264 1077.1 238.651 1057.5 238.651C1037.9 238.651 1020.63 245.264 1010.5 255.303C1000.37 245.264 983.099 238.651 963.5 238.651C943.901 238.651 926.634 245.264 916.5 255.303C906.366 245.264 889.099 238.651 869.5 238.651C849.901 238.651 832.634 245.264 822.5 255.303C812.366 245.264 795.099 238.651 775.5 238.651C755.901 238.651 738.634 245.264 728.5 255.303C718.366 245.264 701.099 238.651 681.5 238.651C661.901 238.651 644.634 245.264 634.5 255.303C624.366 245.264 607.099 238.651 587.5 238.651C567.901 238.651 550.634 245.264 540.5 255.303C530.366 245.264 513.099 238.651 493.5 238.651C473.901 238.651 456.634 245.264 446.5 255.303C436.366 245.264 419.099 238.651 399.5 238.651C379.901 238.651 362.634 245.264 352.5 255.303C342.366 245.264 325.099 238.651 305.5 238.651C285.901 238.651 268.634 245.264 258.5 255.303C248.366 245.264 231.099 238.651 211.5 238.651C191.901 238.651 174.634 245.264 164.5 255.303C154.366 245.264 137.099 238.651 117.5 238.651C97.9007 238.651 80.6335 245.264 70.5 255.303C60.3665 245.264 43.0993 238.651 23.5 238.651C15.1144 238.651 7.15597 239.863 0 242.034V30.2995C185.5 30.2995 328 143.827 640.5 63.9753Z" fill="#FFFDF6"/>
</svg>
